<?xml version="1.0" encoding="UTF-8" standalone="no"?>
<!DOCTYPE svg PUBLIC "-//W3C//DTD SVG 1.1//EN"
"http://www.w3.org/Graphics/SVG/1.1/DTD/svg11.dtd">


<!-- Page 1 -->
<svg x="0" y="0" width="359" height="272" viewBox="0 0 359 272" version="1.1" xmlns="http://www.w3.org/2000/svg" xmlns:xlink="http://www.w3.org/1999/xlink"
style="display: block;margin-left: auto;margin-right: auto;">
<defs>
<clipPath id="c_1"><path d="M0,0H359V272H0Z"/></clipPath>
<style type="text/css"><![CDATA[

.g0{
fill: #E5989B;
}
.g1{
fill: none;
stroke: #FFFFFF;
stroke-width: 2.291;
stroke-linecap: round;
stroke-linejoin: bevel;
}
.g2{
fill: #4E4E69;
}

]]></style>

</defs>
<g clip-path="url(#c_1)">
<path d="M0,0
L0,272
L359,272
L359,0 Z " 
fill="#FFFFFF" stroke="none"/>
<path fill-rule="evenodd" d="M87,159.8c-10.9,0,-19.2,1.8,-24.6,5.3c-5.5,3.5,-8.3,8.7,-8.3,15.8c0,5.1,1.7,9.3,5,12.6c3.2,3.3,7.4,5,12.4,5c2.8,0,5.8,-.7,9.1,-2c3.3,-1.4,6.8,-3.5,10.6,-6.2V159.8ZM77.2,109c21.2,0,31.7,9.7,31.7,29.1v43.4c0,12.1,3,18.1,9,18.1c1.1,0,2.5,-.2,4.3,-.6l1.1,9.4c-4.3,1.5,-8.1,2.3,-11.4,2.3c-8.8,0,-14.3,-5.2,-16.6,-15.6c-5.3,5.2,-10.5,9.1,-15.7,11.7c-5.2,2.6,-10.3,3.9,-15.5,3.9c-8.2,0,-15,-2.6,-20.5,-7.9c-5.5,-5.2,-8.3,-11.7,-8.3,-19.6c0,-10.8,4.4,-18.8,13.1,-24.2c8.7,-5.3,21.7,-8,39.1,-8h3.7V139c0,-14.2,-6,-21.2,-18,-21.2c-7.1,0,-13.6,2.6,-19.5,7.9l-1.1,9.8H42.7V117.1c12.5,-5.4,24,-8.1,34.5,-8.1Z" class="g0"/>
<path d="M87,159.8c-10.9,0,-19.2,1.8,-24.6,5.3c-5.5,3.5,-8.3,8.7,-8.3,15.8c0,5.1,1.7,9.3,5,12.6c3.2,3.3,7.4,5,12.4,5c2.8,0,5.8,-.7,9.1,-2c3.3,-1.4,6.8,-3.5,10.6,-6.2V159.8ZM77.2,109c21.2,0,31.7,9.7,31.7,29.1v43.4c0,12.1,3,18.1,9,18.1c1.1,0,2.5,-.2,4.3,-.6l1.1,9.4c-4.3,1.5,-8.1,2.3,-11.4,2.3c-8.8,0,-14.3,-5.2,-16.6,-15.6c-5.3,5.2,-10.5,9.1,-15.7,11.7c-5.2,2.6,-10.3,3.9,-15.5,3.9c-8.2,0,-15,-2.6,-20.5,-7.9c-5.5,-5.2,-8.3,-11.7,-8.3,-19.6c0,-10.8,4.4,-18.8,13.1,-24.2c8.7,-5.3,21.7,-8,39.1,-8h3.7V139c0,-14.2,-6,-21.2,-18,-21.2c-7.1,0,-13.6,2.6,-19.5,7.9l-1.1,9.8H42.7V117.1c12.5,-5.4,24,-8.1,34.5,-8.1Z" class="g1"/>
<path fill-rule="evenodd" d="M202.3,109c7.1,0,12.7,1.7,16.9,5.1c4.1,3.4,6.8,8.6,8,15.4h1.1c5.2,-6.8,10.5,-12,16.1,-15.4c5.6,-3.4,11.4,-5.1,17.5,-5.1c8.1,0,14.4,2.5,19.1,7.7c4.6,5.1,7,12.1,7,21v61.9h13.2v8.8H257v-8.8h13.2V140.9c0,-6.2,-1.1,-10.9,-3.2,-14c-2.2,-3.1,-5.5,-4.7,-9.9,-4.7c-4.6,0,-9.2,1.3,-14,3.9c-4.8,2.6,-9.7,6.5,-14.8,11.6v61.9h13.3v8.8H197.4v-8.8h13.2V140.9c0,-6.2,-1.1,-10.9,-3.2,-14c-2.2,-3.1,-5.5,-4.7,-9.9,-4.7c-4.5,0,-9.2,1.3,-14,3.9c-4.8,2.6,-9.7,6.5,-14.8,11.6v61.9H182v8.8H137.7v-8.8H151V120.1H137.7v-8.9h31v18.3c5.1,-6.8,10.5,-12,16.1,-15.4c5.6,-3.4,11.4,-5.1,17.5,-5.1Z" class="g2"/>
<path d="M202.3,109c7.1,0,12.7,1.7,16.9,5.1c4.1,3.4,6.8,8.6,8,15.4h1.1c5.2,-6.8,10.5,-12,16.1,-15.4c5.6,-3.4,11.4,-5.1,17.5,-5.1c8.1,0,14.4,2.5,19.1,7.7c4.6,5.1,7,12.1,7,21v61.9h13.2v8.8H257v-8.8h13.2V140.9c0,-6.2,-1.1,-10.9,-3.2,-14c-2.2,-3.1,-5.5,-4.7,-9.9,-4.7c-4.6,0,-9.2,1.3,-14,3.9c-4.8,2.6,-9.7,6.5,-14.8,11.6v61.9h13.3v8.8H197.4v-8.8h13.2V140.9c0,-6.2,-1.1,-10.9,-3.2,-14c-2.2,-3.1,-5.5,-4.7,-9.9,-4.7c-4.5,0,-9.2,1.3,-14,3.9c-4.8,2.6,-9.7,6.5,-14.8,11.6v61.9H182v8.8H137.7v-8.8H151V120.1H137.7v-8.9h31v18.3c5.1,-6.8,10.5,-12,16.1,-15.4c5.6,-3.4,11.4,-5.1,17.5,-5.1Z" class="g1"/>
<path fill-rule="evenodd" d="M136.6,112.2h31v88.3h13.3v8.9H136.6v-8.9h13.3V121H136.6ZM149.9,76.9h17.7V94.5H149.9Z" class="g0"/>
<path d="M136.6,112.2h31v88.3h13.3v8.9H136.6v-8.9h13.3V121H136.6ZM149.9,76.9h17.7V94.5H149.9Z" class="g1"/>

</g>
</svg>
